<?xml version="1.0" encoding="utf-8"?>
<!-- Generator: Adobe Illustrator 19.1.0, SVG Export Plug-In . SVG Version: 6.00 Build 0)  -->
<!DOCTYPE svg PUBLIC "-//W3C//DTD SVG 1.1//EN" "http://www.w3.org/Graphics/SVG/1.1/DTD/svg11.dtd">
<svg version="1.1" id="Layer_1" xmlns="http://www.w3.org/2000/svg" xmlns:xlink="http://www.w3.org/1999/xlink" x="0px" y="0px"
	 viewBox="0 0 350.4 298.2" style="enable-background:new 0 0 350.4 298.2;" xml:space="preserve">
<style type="text/css">
	.st0{fill:#FFFFFF;}
</style>
<g>
	<path class="st0" d="M312.4,187.9c-6.6,0-10.9,5.7-12.2,11.8l0.6,0.2c1.2-1.2,2.8-1.8,4.4-1.7c2.6,0.2,3.6,2.8,3.5,5.4
		c-0.3,6.4-8,16.7-17.4,16.5c-12.9-0.2-4.4-19-1.6-24.9c2.6-5.5,8.1-12.5,8.1-18.9c0-4.7-3.2-8.6-8.1-8.5c-8.4,0.2-16.4,7-21.7,12.9
		c0.5-4.7-3.4-8.5-7.8-8.5c-4.4-0.1-8.7,2.8-10.2,6.9c1.9,1.1,2.1,4.5,1.4,8.8c-2.6,7.4-10.1,23.8-18.3,24.2c-8.4,0.4,6.7-28,9.3-31
		c-1-2.7-4.5-4.3-7.8-4.4c-2,0-4,0.8-5.4,1.8c-5.4,3.8-11.4,18.9-13.2,26c-2.9,6.7-6.3,14.1-10.3,14.2c-1.5,0.1-2.4-1.5-1.5-5.5
		c0.8-4,3.7-9.3,3.6-12.6c-0.1-3.1-2.9-4.7-6-4.7c-5.5,0.1-8.4,7.4-10.8,11.4c-3.2,5.5-8.3,12.4-12.4,12
		c-9.5-0.9,9.5-33.8,21.2-34.1c3.7-0.1,2.9,1.5,2.4,5.4c-0.6,3.9,10,0.9,9.9-6.8c0-6.3-6.5-9.5-12.1-9.3
		c-17.8,0.6-34.7,23.4-40.4,42.1c-2.9,3.8-7.4,7.8-10.8,7.9c-5.1,0.1-2.6-8.2-1.6-10.7c4.2-10.4,11.4-24.7,19.1-37.1
		c28.6-7,61.1-9.3,89.9-12.1c16-1.6,38.2-3.1,48.4-17.6c4.3-6.2,4.9-11.9,4.2-19.1c3.9-3.6,1.8-9.1-2.4-11.5
		c-9.7-5.5-24.4-2.2-32.7,4c-2.6,1.9-2.1,6-0.8,6.2c4.7-1.3,21.4-5.3,23.8,1.3c0.9,2.5-0.9,5.8-3.7,8.4c-8,7.4-26.6,12.1-39.8,14.6
		c-14.4,2.7-50,7.4-78.1,12.9c1.5-1.9,2.9-3.7,4.3-5.3c-0.3-3.6-2.4-6.5-6.1-6.4c-4,0-6.1,3-8.1,6c-1.7,2.5-3.8,5.7-6.3,9.3
		c-9.3,2.3-16.5,4.7-20,7.1c-2.7,1.9-4.6,4.9-5.4,8.3c-0.5,2.2,0.3,6.1,2.9,6.2c3.3-2.8,7.8-5.1,12.8-7.1
		c-11.9,18.3-24.9,40.5-25.3,52.3c-0.2,6.3,2.8,11.7,9.7,11.5c8.5-0.2,18.3-9.5,24.5-17.3c1.2,5,4.6,8.1,10.4,7.9
		c10.2-0.3,18-9.6,22.9-17.6c0.5,6.6,2.9,12.3,10,12.3c5.7,0,10-4,13.1-9.2c0.9,1.8,3.2,5.3,8.6,5.4c6.4,0.2,14.6-6.4,18.5-11.4
		c0.1,3.2,3.6,6.4,6.9,6.5c4.8,0.1,7.1-3.8,8.7-7.6c2.5-5.9,14.6-32.7,21-33.1c4-0.3,1.3,5.7,0.6,7.7c-3.3,8.8-10.6,17.4-11.4,29
		c-0.8,11.1,6.8,17,17.3,17.1c17.3,0.1,37.3-18.9,37.3-36.5C321.9,192.6,318.8,187.9,312.4,187.9z"/>
	<path class="st0" d="M340.1,77.2c-4,5.7-13.2,13.5-20.7,13.9c-10.6,0.5-9.8-11.4-4-17.3c1.1,3,4.2,3.5,7,3.4
		c11.9-0.6,27.6-12.9,28.1-25.5c0.2-6.7-4-12-12.2-11.8c-16.5,0.3-32,18.1-39,32.6c-6.2,9.7-15.8,19.2-26.7,19.3
		c-7.8,0-9.3-7.8-4.8-13.2c0.7,2.9,3.4,3.8,6.1,3.8c12,0,27.6-13.5,28-25.6c0.2-6-4-10.1-10.6-10.4c-18.3-0.7-40.4,26.7-41.4,44.7
		c-0.5,9.2,4.3,15.7,13.8,16.3c9.7,0.5,21.8-7.9,28.9-15.7c0.6,9.8,7.5,14.4,16.5,14.5c12.9,0.1,28.3-9.7,34-24.2
		C343.8,79.4,342.8,76.9,340.1,77.2z M337.7,51.2c8.8,0.4-4.9,15.7-13.7,15.8C315.1,67.1,331.6,51,337.7,51.2z M289.4,57.1
		c1.7-0.1,2.5,0.9,2.5,2.4c-0.1,7.7-17.4,15.8-17.6,11.1C274.1,67.1,284.9,57.2,289.4,57.1z"/>
	<path class="st0" d="M275.3,240.7c-2.1-1.1-8.1-2.7-12.9-2.5c-6.8,0.2-8.2,6-3.2,9.8c7-0.6,13.3,0.3,20,1.3
		C280,244.9,278.1,242.3,275.3,240.7z"/>
	<path class="st0" d="M263.5,119.5c-0.2-2.6-3.9-4.2-6.3-4.2c-9.2,0.2-16.1,10.2-15.9,19c0.2,5.4,3.5,10,10,10.3
		c1.5-0.5,1.4-1.9,1.4-1.9c0.7-6.6,5.5-14.6,9.3-19.8C263.7,120.4,263.5,119.5,263.5,119.5z"/>
	<path class="st0" d="M155,142.6c0.2-5.8-2.5-11-10.1-11.2c-18-0.3-26.4,31.6-30.2,45.6c-12.4,7.8-26.4,12.7-38.8,12.4
		c-5.3-0.1-10.3-1.4-12.7-4.7c-2-2.8-2.8-6.8,0.1-9.3c-0.5-1-2.2-1.3-3.6-0.9c-13.1,3.6-14.1,35.1,14.2,34.5
		c9.8-0.2,23.1-5.9,36.1-14.3c-10,30.4-31.9,71-61.3,71.2c-12.5,0.1-20.8-8.5-20.9-19.6c-0.2-17.1,19.5-33.9,34.5-21.4l0.9-1
		c-0.2-10.9-12.9-14.8-21.9-14.8C17.5,209.3,0,231.1,0,253.7c0,24.1,18.5,39,42.1,38.5c51.1-1.1,72.5-65.9,85.2-110.4
		C138.7,171.6,154.5,154.8,155,142.6z M145.2,140.2c3.2,0.3-0.1,6-0.9,7.5c-2.9,5.1-6.8,10.2-11.5,14.9
		C135.5,154.1,140.5,139.8,145.2,140.2z"/>
	<path class="st0" d="M243.5,238.5c-40.4-1.9-111.1,12-143.8,34.3c-5,3.9-7.8,8.5-7.4,14.9c0.3,4.6,3.5,9.3,7.9,10.5
		c35-29.3,92.3-48.1,149.6-50C250.1,242.9,249.3,239.2,243.5,238.5z"/>
	<path class="st0" d="M69.5,166.9c22.5-0.4,49.4-27.4,60.8-49.5c5.7,8.9,18.9,9.1,29-0.4c7.2-6.7,13.4-16.2,17.3-24.2
		c7.5-3.1,12.9-8.3,12.9-8.2c-9.2,11.6-26.7,38.1-26.7,52.8c0,6,2.5,9.6,8.8,9.4c21.8-0.4,37.6-44.6,34.7-62.6
		c0,0,10.5-2.9,20.8-8.1c-10.9,16.2-29.8,48.6-29.6,62.6c0.3,21.2,38.4,10.5,41.2-42c0.2-3.4,0.2-6.5,0-9.2
		c2.6-4.7,10.1-6.8,10.1-6.8c2.6-7.2,6.1-11.3,6.1-11.3c-3.4-0.3-8.3,1.4-11.4,2.7c0.6-1.5,1.2-2.9,1.9-4.3
		c18.4-10.8,45.8-38.8,46.2-57c0.1-5.4-2.2-10.5-8.9-10.6c-15.8-0.2-40.8,47.3-47.8,60.8c-6.5,3.8-16.1,8.3-25,8.9
		c19-16.8,43.6-44.2,43.6-60.7c0-5-2.2-9.3-8.6-9.2c-18.6,0.2-40.1,48-48.9,69.4c-2,2.3-7.7,8-15.1,10.6c1.7-9.4,0.9-21.5-11.1-21.2
		c-6.6,0.2-11.3,5.4-14.1,11c-14.9,1.9-27.3,20.9-28.3,34.6c-11.2,15.7-30.6,38.2-49.2,37.9c-40.8-0.8,19.9-121,58.4-122
		c20.7-0.5-4.9,51.8-14.8,52.6c-1.7-0.1-2.4-1.8-2.5-4.3c-0.2-8.5,5.9-18.6,11.5-24.4c0.4-0.4-0.8-1-0.8-1
		c-16.2-0.9-33.6,24-34.1,39.9c-0.2,6.1,2.1,13.9,9.6,13.8c21.9-0.2,53.6-49.7,53.5-70.4c-0.1-12.1-7-19.5-19.8-19.4
		C92.9,7.7,41.9,89.3,41.3,131.9C41.1,150.2,48.6,167.3,69.5,166.9z M281.1,9.8c4.5-0.1,0.4,7.4-4.3,14.2c-6.9,10-14,18.7-23.5,25.8
		C256.9,42.1,276.1,9.9,281.1,9.8z M216.8,131.2c-5.2-0.9,7.2-26.3,15.8-41.9C232.8,98,223.2,132.4,216.8,131.2z M243.4,11.2
		c5.6,1-15.7,29.6-25.4,39.7C222.7,40.5,237.5,10.1,243.4,11.2z M200.3,89.6c0,0.1,0,0.1,0,0.2c-0.8,8.3-13.1,37.6-18.9,37.9
		C177.2,127.9,193,96.3,200.3,89.6z M171.9,69.6c3.3,0,2.8,5.7,0.3,11.5c-2.4-0.2-4.5-1.2-4.7-4.3C167.4,74.3,169,69.7,171.9,69.6z
		 M153,83.3c0.7,6.7,4.6,11.1,11.5,11.8c-3.8,5.5-8.8,11-14.3,11.1C140.9,106.2,143.7,90.9,153,83.3z"/>
</g>
</svg>
